<?xml version="1.0" encoding="UTF-8" standalone="no"?>
<svg
   height="40px"
   viewBox="0 -960 960 960"
   width="40px"
   fill="#e3e3e3"
   version="1.1"
   id="svg1"
   sodipodi:docname="account-purple.svg"
   inkscape:export-filename="account-purple.svg"
   inkscape:export-xdpi="96"
   inkscape:export-ydpi="96"
   inkscape:version="1.4 (86a8ad7, 2024-10-11)"
   xmlns:inkscape="http://www.inkscape.org/namespaces/inkscape"
   xmlns:sodipodi="http://sodipodi.sourceforge.net/DTD/sodipodi-0.dtd"
   xmlns="http://www.w3.org/2000/svg"
   xmlns:svg="http://www.w3.org/2000/svg">
  <defs
     id="defs1" />
  <sodipodi:namedview
     id="namedview1"
     pagecolor="#ffffff"
     bordercolor="#000000"
     borderopacity="0.25"
     inkscape:showpageshadow="2"
     inkscape:pageopacity="0.0"
     inkscape:pagecheckerboard="0"
     inkscape:deskcolor="#d1d1d1"
     inkscape:zoom="19.325"
     inkscape:cx="20.025873"
     inkscape:cy="20"
     inkscape:window-width="1920"
     inkscape:window-height="991"
     inkscape:window-x="-9"
     inkscape:window-y="-9"
     inkscape:window-maximized="1"
     inkscape:current-layer="svg1" />
  <path
     d="M226-262q59-42.33 121.33-65.5 62.34-23.17 132.67-23.17 70.33 0 133 23.17T734.67-262q41-49.67 59.83-103.67T813.33-480q0-141-96.16-237.17Q621-813.33 480-813.33t-237.17 96.16Q146.67-621 146.67-480q0 60.33 19.16 114.33Q185-311.67 226-262Zm155.83-224.5Q342-526.33 342-584.67q0-58.33 39.83-98.16 39.84-39.84 98.17-39.84t98.17 39.84Q618-643 618-584.67q0 58.34-39.83 98.17-39.84 39.83-98.17 39.83t-98.17-39.83ZM480-80q-82.33 0-155.33-31.5-73-31.5-127.34-85.83Q143-251.67 111.5-324.67T80-480q0-83 31.5-155.67 31.5-72.66 85.83-127Q251.67-817 324.67-848.5T480-880q83 0 155.67 31.5 72.66 31.5 127 85.83 54.33 54.34 85.83 127Q880-563 880-480q0 82.33-31.5 155.33-31.5 73-85.83 127.34-54.34 54.33-127 85.83Q563-80 480-80Zm105-82.5q50.67-15.83 97.67-52.17-47-33.66-98-51.5Q533.67-284 480-284t-104.67 17.83q-51 17.84-98 51.5 47 36.34 97.67 52.17 50.67 15.83 105 15.83t105-15.83Zm-53.67-370.83q20-20 20-51.34 0-31.33-20-51.33T480-656q-31.33 0-51.33 20t-20 51.33q0 31.34 20 51.34 20 20 51.33 20t51.33-20ZM480-584.67Zm0 369.34Z"
     id="path1" />
  <path
     style="fill:#9be37d;fill-rule:evenodd;stroke-width:0.195577"
     d="M 18.47348,36.577031 C 12.004236,36.011653 6.3327563,31.509406 4.2076708,25.252264 2.9942632,21.679483 3.0882486,17.523881 4.4610464,14.049159 c 1.3654287,-3.45607 3.687197,-6.2518981 6.8124386,-8.2034064 2.767036,-1.7278324 5.901471,-2.5638564 9.243979,-2.465576 1.97057,0.057941 3.719816,0.4006082 5.38163,1.0542306 2.984691,1.1739341 5.487954,3.060365 7.368286,5.5526562 0.659901,0.8746676 1.023422,1.4582976 1.5632,2.5097026 1.247669,2.430271 1.793032,4.712203 1.793211,7.503234 1.72e-4,2.680833 -0.503849,4.869864 -1.668035,7.244502 -0.536598,1.094521 -1.003801,1.858877 -1.705572,2.790361 -2.545657,3.378936 -6.429414,5.733129 -10.538229,6.387895 -1.305665,0.208065 -2.941623,0.267611 -4.238475,0.154273 z m 3.648124,-2.810929 c 1.932095,-0.305092 3.647574,-0.922327 5.099522,-1.834825 0.593534,-0.373016 1.213544,-0.823249 1.213544,-0.88124 0,-0.04673 -0.95329,-0.675914 -1.474773,-0.973374 -1.695175,-0.966944 -3.44783,-1.571954 -5.304011,-1.830924 -0.64543,-0.09005 -2.665378,-0.09014 -3.311772,-1.45e-4 -1.846546,0.257079 -3.645197,0.878609 -5.304011,1.832817 -0.557735,0.320829 -1.474773,0.9241 -1.474773,0.970176 0,0.02268 0.157478,0.157972 0.349952,0.300659 1.37147,1.016713 3.149764,1.827109 4.824692,2.198688 0.508247,0.112754 1.265475,0.233999 1.966365,0.314848 0.467767,0.05396 2.896743,-0.0148 3.415265,-0.09668 z M 10.184031,28.59502 c 1.625986,-1.076984 3.217353,-1.865128 4.848311,-2.401186 3.422152,-1.12478 7.373959,-1.026637 10.711513,0.266023 1.533021,0.59375 3.016234,1.380797 4.41551,2.343029 0.222838,0.153238 0.424096,0.278615 0.447238,0.278615 0.06894,0 0.804994,-0.987845 1.201305,-1.61225 1.791484,-2.822556 2.480476,-6.438226 1.902242,-9.982521 -0.462749,-2.836427 -1.721684,-5.278304 -3.795358,-7.361616 -2.163968,-2.174028 -4.680091,-3.4369128 -7.767315,-3.8985476 -0.888739,-0.1328939 -3.406215,-0.1328939 -4.294954,0 -3.083656,0.4611014 -5.604845,1.7267074 -7.768122,3.8995016 -2.1987719,2.208445 -3.4680371,4.792989 -3.8706866,7.881694 -0.4330766,3.32211 0.257773,6.663878 1.9309227,9.340233 0.3900708,0.623954 1.1969117,1.730438 1.2631968,1.732321 0.02295,6.51e-4 0.3722385,-0.217732 0.7761971,-0.485296 z"
     id="path2"
     transform="matrix(24,0,0,24,0,-960)" />
  <path
     style="fill:#4c2c72;fill-rule:evenodd;stroke-width:0.195577;fill-opacity:1"
     d="m 19.181178,21.319402 c -0.917383,-0.129458 -1.957981,-0.553718 -2.651897,-1.081198 -1.281795,-0.974356 -2.066978,-2.389585 -2.225292,-4.010908 -0.173802,-1.779949 0.404865,-3.434616 1.629204,-4.658619 0.841055,-0.840823 1.790535,-1.33904 2.975266,-1.5612 0.644464,-0.1208497 1.985836,-0.077803 2.590829,0.08314 1.969134,0.52385 3.547246,2.09309 4.039159,4.016455 0.350565,1.370693 0.198467,2.92699 -0.403974,4.133546 -0.746077,1.49423 -2.170712,2.617039 -3.779955,2.979125 -0.518315,0.116623 -1.676708,0.16974 -2.17334,0.09966 z m 1.558116,-2.766897 c 1.029722,-0.218196 1.819414,-0.964686 2.139258,-2.022222 0.128433,-0.424654 0.128597,-1.37909 3.11e-4,-1.80842 -0.276192,-0.92432 -0.95977,-1.626951 -1.869807,-1.921925 -0.594455,-0.192683 -1.423657,-0.192683 -2.018112,0 -1.316114,0.426598 -2.091535,1.650042 -1.970509,3.109029 0.134714,1.623983 1.307568,2.701955 2.953692,2.71474 0.227684,0.0018 0.57201,-0.03027 0.765167,-0.0712 z"
     id="path3"
     transform="matrix(24,0,0,24,0,-960)" />
  <path
     style="fill:#4c2c72;fill-opacity:1;fill-rule:evenodd;stroke-width:0.195577"
     d="M 18.188875,36.529857 C 14.261428,36.047891 10.844138,34.3592 8.1161334,31.552301 5.6818891,29.047658 4.0617869,25.821291 3.5744757,22.507776 3.3053953,20.67814 3.3405896,18.718317 3.6757301,16.86934 4.1150526,14.44559 5.3750442,11.723739 6.9934035,9.702458 9.7363172,6.2766431 13.466436,4.1483698 17.800776,3.536156 c 0.946913,-0.1337489 3.535237,-0.1335474 4.476067,3.484e-4 2.291856,0.3261691 4.368938,1.0735261 6.338215,2.2805592 3.955354,2.4243636 6.760033,6.4050674 7.681227,10.9020314 0.204792,0.999726 0.282779,1.918195 0.280777,3.306778 -0.0032,2.21354 -0.265592,3.733834 -0.982451,5.692109 -0.291227,0.795556 -1.211597,2.602477 -1.713236,3.363519 -2.646133,4.014476 -6.877162,6.716003 -11.552785,7.376494 -0.698185,0.09863 -3.52214,0.147649 -4.139715,0.07186 z m 3.221695,-2.687543 c 1.606616,-0.104077 3.335654,-0.589549 4.876623,-1.369238 0.928397,-0.469744 2.147477,-1.279363 2.147477,-1.426189 0,-0.123822 -1.370025,-0.966802 -2.354463,-1.448706 -1.28522,-0.629145 -2.402337,-1.00478 -3.799139,-1.277479 C 21.614748,28.190616 21.49634,28.183494 20,28.183494 c -1.49634,0 -1.614748,0.0071 -2.281068,0.137208 -1.396802,0.272699 -2.513919,0.648334 -3.799139,1.277479 -0.995828,0.48748 -2.354463,1.325014 -2.354463,1.451414 0,0.07321 0.537911,0.485252 1.051885,0.805753 1.53435,0.956782 3.129874,1.561423 4.898956,1.856512 0.412678,0.06883 0.820181,0.13447 0.905563,0.145854 0.317633,0.04235 2.251114,0.03239 2.988836,-0.0154 z M 10.248813,28.58615 c 2.872293,-1.840187 5.293224,-2.758595 8.043554,-3.051416 0.815967,-0.08687 2.499853,-0.09843 3.26748,-0.02242 2.848125,0.282007 5.424056,1.250869 8.285046,3.116182 0.403296,0.262941 0.743961,0.451579 0.786226,0.435361 0.202378,-0.07766 1.317793,-1.704383 1.74937,-2.551284 0.992289,-1.947211 1.465497,-3.873222 1.524282,-6.204011 C 33.976851,17.45048 33.34629,14.951476 31.990677,12.722776 30.173477,9.7351995 27.244085,7.4894152 24.010349,6.6047464 22.606604,6.2207172 21.690168,6.1069654 20,6.1069654 c -1.318486,0 -2.035836,0.061701 -3.017228,0.2595195 -2.079927,0.4192494 -4.067183,1.3450759 -5.727921,2.668535 -0.56267,0.448398 -1.7890445,1.6767671 -2.2420567,2.2457041 -1.6697561,2.097044 -2.6033148,4.465077 -2.88534,7.318854 -0.086628,0.876579 -0.033178,2.712383 0.1037833,3.564566 0.3937429,2.449894 1.2079456,4.354917 2.749401,6.432885 0.1976615,0.26646 0.3898975,0.484472 0.4271901,0.484472 0.037293,0 0.4157361,-0.222909 0.8409843,-0.495351 z"
     id="path4"
     transform="matrix(24,0,0,24,0,-960)" />
</svg>
