<?xml version="1.0" encoding="UTF-8" standalone="no"?>
<svg
   width="16"
   height="16"
   fill="currentColor"
   class="bi bi-building"
   viewBox="0 0 16 16"
   version="1.1"
   id="svg2"
   sodipodi:docname="building-purple.svg"
   inkscape:export-filename="building.svg"
   inkscape:export-xdpi="240"
   inkscape:export-ydpi="240"
   inkscape:version="1.4 (86a8ad7, 2024-10-11)"
   xmlns:inkscape="http://www.inkscape.org/namespaces/inkscape"
   xmlns:sodipodi="http://sodipodi.sourceforge.net/DTD/sodipodi-0.dtd"
   xmlns="http://www.w3.org/2000/svg"
   xmlns:svg="http://www.w3.org/2000/svg">
  <defs
     id="defs2" />
  <sodipodi:namedview
     id="namedview2"
     pagecolor="#ffffff"
     bordercolor="#000000"
     borderopacity="0.25"
     inkscape:showpageshadow="2"
     inkscape:pageopacity="0.0"
     inkscape:pagecheckerboard="0"
     inkscape:deskcolor="#d1d1d1"
     inkscape:zoom="48.3125"
     inkscape:cx="7.9689521"
     inkscape:cy="7.9793014"
     inkscape:window-width="1920"
     inkscape:window-height="991"
     inkscape:window-x="-9"
     inkscape:window-y="-9"
     inkscape:window-maximized="1"
     inkscape:current-layer="svg2" />
  <path
     d="M4 2.5a.5.5 0 0 1 .5-.5h1a.5.5 0 0 1 .5.5v1a.5.5 0 0 1-.5.5h-1a.5.5 0 0 1-.5-.5zm3 0a.5.5 0 0 1 .5-.5h1a.5.5 0 0 1 .5.5v1a.5.5 0 0 1-.5.5h-1a.5.5 0 0 1-.5-.5zm3.5-.5a.5.5 0 0 0-.5.5v1a.5.5 0 0 0 .5.5h1a.5.5 0 0 0 .5-.5v-1a.5.5 0 0 0-.5-.5zM4 5.5a.5.5 0 0 1 .5-.5h1a.5.5 0 0 1 .5.5v1a.5.5 0 0 1-.5.5h-1a.5.5 0 0 1-.5-.5zM7.5 5a.5.5 0 0 0-.5.5v1a.5.5 0 0 0 .5.5h1a.5.5 0 0 0 .5-.5v-1a.5.5 0 0 0-.5-.5zm2.5.5a.5.5 0 0 1 .5-.5h1a.5.5 0 0 1 .5.5v1a.5.5 0 0 1-.5.5h-1a.5.5 0 0 1-.5-.5zM4.5 8a.5.5 0 0 0-.5.5v1a.5.5 0 0 0 .5.5h1a.5.5 0 0 0 .5-.5v-1a.5.5 0 0 0-.5-.5zm2.5.5a.5.5 0 0 1 .5-.5h1a.5.5 0 0 1 .5.5v1a.5.5 0 0 1-.5.5h-1a.5.5 0 0 1-.5-.5zm3.5-.5a.5.5 0 0 0-.5.5v1a.5.5 0 0 0 .5.5h1a.5.5 0 0 0 .5-.5v-1a.5.5 0 0 0-.5-.5z"
     id="path1" />
  <path
     d="M2 1a1 1 0 0 1 1-1h10a1 1 0 0 1 1 1v14a1 1 0 0 1-1 1H3a1 1 0 0 1-1-1zm11 0H3v14h3v-2.5a.5.5 0 0 1 .5-.5h3a.5.5 0 0 1 .5.5V15h3z"
     id="path2" />
  <path
     style="fill:#4c2c72;fill-rule:evenodd;stroke-width:0.0782308;fill-opacity:1"
     d="M 2.8819947,15.979474 C 2.5403886,15.935198 2.2608364,15.727097 2.1032103,15.399741 l -0.07475,-0.155239 V 8 0.75549806 L 2.1044288,0.59641323 C 2.2306952,0.33199897 2.4226156,0.15954458 2.7035121,0.05809333 L 2.835705,0.01034929 H 8 13.164295 l 0.134541,0.04818207 c 0.277805,0.09948826 0.470073,0.2726248 0.596301,0.53696705 l 0.0764,0.15999965 V 8 15.244502 l -0.07448,0.155239 c -0.128873,0.26861 -0.320736,0.442353 -0.598223,0.541728 l -0.134541,0.04818 -5.0815007,0.0026 c -2.7948253,0.0015 -5.1351852,-0.0043 -5.2007996,-0.01282 z m 3.1309419,-2.259091 c 0,-0.916149 0.00691,-1.309147 0.024022,-1.366263 0.031105,-0.103821 0.1440082,-0.234737 0.2524582,-0.292738 l 0.085745,-0.04586 H 8 9.6248383 l 0.085745,0.04586 c 0.10845,0.058 0.2213528,0.188917 0.2524582,0.292738 0.017112,0.05712 0.024022,0.450114 0.024022,1.366263 v 1.286085 H 11.49806 13.009056 V 8 0.99353169 H 8 2.9909444 V 8 15.006468 h 1.5109961 1.5109961 z"
     id="path12" />
  <path
     style="fill:#4c2c72;fill-opacity:1;fill-rule:evenodd;stroke-width:0.0782308"
     d="M 10.376622,9.96927 C 10.249304,9.9340261 10.146173,9.8530414 10.075494,9.7328044 l -0.05738,-0.097617 V 9.003881 c 0,-0.6121758 0.0014,-0.633905 0.04586,-0.7170516 0.058,-0.1084498 0.188918,-0.2213527 0.292739,-0.2524582 0.05271,-0.015792 0.277902,-0.023866 0.657336,-0.023567 0.535814,4.22e-4 0.583831,0.00347 0.670303,0.042617 0.11484,0.051984 0.196967,0.1279726 0.255453,0.2363589 0.04218,0.078159 0.04505,0.1149495 0.05131,0.6572076 0.0074,0.6401526 -0.0048,0.7288005 -0.119741,0.8674539 -0.03453,0.041669 -0.107036,0.097555 -0.161125,0.1241914 -0.09508,0.046822 -0.11725,0.04858 -0.667554,0.05294 -0.414526,0.00328 -0.595532,-0.00278 -0.666069,-0.022303 z"
     id="path13" />
  <path
     style="fill:#4c2c72;fill-opacity:1;fill-rule:evenodd;stroke-width:0.0782308"
     d="M 7.3731121,9.9687072 C 7.2434905,9.9328922 7.132948,9.8412574 7.0686568,9.7163274 L 7.0168176,9.6155941 V 8.9940842 c 0,-0.5973435 0.00174,-0.6247291 0.044676,-0.7043041 C 7.1199795,8.1813938 7.2021068,8.1054053 7.316947,8.0534212 7.4036623,8.0141683 7.450803,8.0112585 8,8.0112585 c 0.549197,0 0.5963377,0.00291 0.683053,0.042163 0.1148402,0.051984 0.1969676,0.1279726 0.2554532,0.2363589 0.042202,0.078209 0.04503,0.1146577 0.051056,0.6580867 0.00711,0.6407906 -0.00497,0.7283864 -0.1194859,0.8665748 -0.03453,0.041669 -0.1070362,0.097555 -0.161125,0.1241914 -0.095077,0.046822 -0.1172497,0.04858 -0.6675541,0.05294 -0.4202619,0.00333 -0.5951363,-0.00265 -0.6682851,-0.022865 z"
     id="path14" />
  <path
     style="fill:#4c2c72;fill-opacity:1;fill-rule:evenodd;stroke-width:0.0782308"
     d="M 4.3718185,9.9679756 C 4.2426351,9.9332356 4.131862,9.841667 4.0673631,9.7163028 L 4.0155239,9.615545 V 8.9940597 c 0,-0.5973184 0.00174,-0.6247048 0.044676,-0.7042796 0.058486,-0.1083863 0.140613,-0.1843748 0.2554532,-0.2363589 0.086471,-0.039142 0.1344887,-0.042195 0.6703023,-0.042617 0.3794345,-2.989e-4 0.6046263,0.00777 0.6573367,0.023567 0.1038209,0.031105 0.2347377,0.1440084 0.2927386,0.2524582 0.044468,0.083147 0.045858,0.1048758 0.045858,0.7170516 v 0.6313066 l -0.058305,0.099191 C 5.8507337,9.858314 5.7312338,9.9464139 5.5968981,9.9752237 5.4471207,10.007345 4.4973212,10.001726 4.3718185,9.9679756 Z"
     id="path15" />
  <path
     style="fill:#4c2c72;fill-opacity:1;fill-rule:evenodd;stroke-width:0.0782308"
     d="M 4.3502228,6.9625211 C 4.2081622,6.9188754 4.0791805,6.7847274 4.0358003,6.6355048 c -0.02817,-0.0969 -0.032483,-0.2074727 -0.026912,-0.6898108 0.00626,-0.5422581 0.00914,-0.579048 0.051312,-0.6572076 0.052276,-0.096879 0.1333592,-0.176491 0.2347546,-0.230496 0.06498,-0.03461 0.1342021,-0.039242 0.6717722,-0.044952 0.5216468,-0.00554 0.6111318,-0.00186 0.6904037,0.028416 0.115897,0.044261 0.22153,0.136914 0.2794058,0.2450719 0.043827,0.081903 0.045352,0.1059884 0.045352,0.7160606 v 0.6313066 l -0.057383,0.097617 C 5.8545545,6.8505096 5.7568968,6.9279204 5.6276565,6.966816 5.486128,7.0094098 4.4919593,7.0060673 4.3502228,6.9625211 Z"
     id="path16" />
  <path
     style="fill:#4c2c72;fill-opacity:1;fill-rule:evenodd;stroke-width:0.0782308"
     d="M 7.3629348,6.9656978 C 7.2413602,6.9277344 7.1423328,6.8474152 7.0742002,6.7315108 L 7.0168176,6.6338939 V 6.0025873 c 0,-0.6100722 0.00153,-0.6341573 0.045352,-0.7160606 0.057876,-0.1081579 0.1635088,-0.2008104 0.2794058,-0.2450719 0.079272,-0.030274 0.168757,-0.033957 0.6904038,-0.028416 0.5375701,0.00571 0.6067921,0.010342 0.6717721,0.044952 0.1013955,0.054005 0.1824782,0.1336169 0.2347546,0.230496 0.042202,0.078209 0.04503,0.1146577 0.051056,0.6580867 0.00754,0.6801043 -0.00387,0.7479991 -0.1503929,0.8945191 C 8.6963481,6.9839134 8.6275999,6.9963678 7.9910685,6.9947344 7.6022905,6.9937367 7.4267388,6.9856215 7.3629348,6.9656978 Z"
     id="path17" />
  <path
     style="fill:#4c2c72;fill-opacity:1;fill-rule:evenodd;stroke-width:0.0782308"
     d="M 10.359638,6.964314 C 10.240995,6.9274747 10.12285,6.8297567 10.064082,6.7198608 c -0.04461,-0.083425 -0.04597,-0.104633 -0.04597,-0.7172735 0,-0.6100722 0.0015,-0.6341573 0.04535,-0.7160606 0.05788,-0.1081579 0.163508,-0.2008104 0.279405,-0.2450719 0.07927,-0.030274 0.168757,-0.033957 0.690404,-0.028416 0.53757,0.00571 0.606792,0.010342 0.671772,0.044952 0.101396,0.054005 0.182478,0.1336169 0.234755,0.230496 0.04218,0.07816 0.04505,0.1149495 0.05131,0.6572076 0.0078,0.6795603 -0.0037,0.7484985 -0.150648,0.8953982 -0.142841,0.1428406 -0.211564,0.1552859 -0.848101,0.1535851 -0.400324,-0.00107 -0.563619,-0.00891 -0.632724,-0.030363 z"
     id="path18" />
  <path
     style="fill:#4c2c72;fill-opacity:1;fill-rule:evenodd;stroke-width:0.0782308"
     d="m 10.382888,3.9740857 c -0.09278,-0.021905 -0.228744,-0.1193755 -0.286895,-0.2056655 -0.0827,-0.1227141 -0.0909,-0.2021016 -0.08423,-0.8150935 0.006,-0.5517196 0.0088,-0.5878275 0.05102,-0.6661339 0.05228,-0.096879 0.13336,-0.176491 0.234755,-0.2304961 0.06613,-0.035221 0.127486,-0.038585 0.703752,-0.038585 0.576265,0 0.637622,0.00336 0.703751,0.038585 0.101396,0.054005 0.182478,0.1336169 0.234755,0.2304961 0.04218,0.078159 0.04505,0.1149495 0.05131,0.6572075 0.0078,0.6795603 -0.0037,0.7484985 -0.150648,0.8953982 -0.143071,0.1430705 -0.211499,0.1554078 -0.848101,0.1529081 -0.296769,-0.00117 -0.571033,-0.00954 -0.609474,-0.018621 z"
     id="path19" />
  <path
     style="fill:#4c2c72;fill-opacity:1;fill-rule:evenodd;stroke-width:0.0782308"
     d="M 7.3629348,3.9644042 C 7.2413602,3.9264407 7.1423328,3.8461216 7.0742002,3.7302171 L 7.0168176,3.6326003 V 3.0012937 c 0,-0.60738 0.00169,-0.6344446 0.044676,-0.7141009 C 7.1137702,2.1903136 7.1948529,2.1107018 7.2962484,2.0566967 7.3623772,2.0214754 7.4237345,2.0181113 8,2.0181113 c 0.5762655,0 0.6376228,0.00336 0.7037516,0.038585 0.1013955,0.054005 0.1824782,0.1336169 0.2347546,0.2304961 0.042983,0.079656 0.044676,0.1067209 0.044676,0.7141009 v 0.6313066 l -0.057383,0.097617 c -0.069951,0.118999 -0.1676087,0.1964098 -0.296849,0.2353054 -0.1341951,0.040387 -1.1359327,0.039502 -1.2660154,-0.00112 z"
     id="path20" />
  <path
     style="fill:#4c2c72;fill-opacity:1;fill-rule:evenodd;stroke-width:0.0782308"
     d="M 4.3502228,3.9619467 C 4.207953,3.9172131 4.0789946,3.7827945 4.0358003,3.6342112 c -0.02817,-0.0969 -0.032483,-0.2074728 -0.026912,-0.6898109 0.00626,-0.542258 0.00914,-0.579048 0.051312,-0.6572075 0.052276,-0.096879 0.1333592,-0.176491 0.2347546,-0.2304961 0.066129,-0.035221 0.1274862,-0.038585 0.7037516,-0.038585 0.5762655,0 0.6376228,0.00336 0.7037517,0.038585 0.1013954,0.054005 0.1824782,0.1336169 0.2347546,0.2304961 0.042983,0.079656 0.044676,0.1067209 0.044676,0.7141009 0,0.6073799 -0.00169,0.6344445 -0.044676,0.7141009 -0.052276,0.096879 -0.1333592,0.176491 -0.2347546,0.230496 -0.065168,0.03471 -0.1316989,0.039033 -0.6623545,0.043038 -0.4792282,0.00362 -0.6086665,-0.00145 -0.6898809,-0.026982 z"
     id="path21" />
</svg>
