<?xml version="1.0" encoding="UTF-8" standalone="no"?>
<svg
   height="24px"
   viewBox="0 -960 960 960"
   width="24px"
   fill="#e3e3e3"
   version="1.1"
   id="svg1"
   sodipodi:docname="calendar-lime.svg"
   inkscape:version="1.4 (86a8ad7, 2024-10-11)"
   inkscape:export-filename="calendar-lime.svg"
   inkscape:export-xdpi="96"
   inkscape:export-ydpi="96"
   xmlns:inkscape="http://www.inkscape.org/namespaces/inkscape"
   xmlns:sodipodi="http://sodipodi.sourceforge.net/DTD/sodipodi-0.dtd"
   xmlns="http://www.w3.org/2000/svg"
   xmlns:svg="http://www.w3.org/2000/svg">
  <defs
     id="defs1" />
  <sodipodi:namedview
     id="namedview1"
     pagecolor="#ffffff"
     bordercolor="#000000"
     borderopacity="0.25"
     inkscape:showpageshadow="2"
     inkscape:pageopacity="0.0"
     inkscape:pagecheckerboard="0"
     inkscape:deskcolor="#d1d1d1"
     inkscape:zoom="32.208333"
     inkscape:cx="12.015524"
     inkscape:cy="12"
     inkscape:window-width="1920"
     inkscape:window-height="991"
     inkscape:window-x="-9"
     inkscape:window-y="-9"
     inkscape:window-maximized="1"
     inkscape:current-layer="svg1" />
  <path
     d="M509-269q-29-29-29-71t29-71q29-29 71-29t71 29q29 29 29 71t-29 71q-29 29-71 29t-71-29ZM200-80q-33 0-56.5-23.5T120-160v-560q0-33 23.5-56.5T200-800h40v-80h80v80h320v-80h80v80h40q33 0 56.5 23.5T840-720v560q0 33-23.5 56.5T760-80H200Zm0-80h560v-400H200v400Zm0-480h560v-80H200v80Zm0 0v-80 80Z"
     id="path1" />
  <path
     style="fill:#9be37d;fill-rule:evenodd;stroke-width:0.117346"
     d="M 4.4926793,21.919105 C 4.1401567,21.82675 3.9136519,21.690943 3.6155413,21.393193 3.429816,21.207693 3.315806,21.061842 3.2359085,20.907536 3.0120739,20.475245 3.0281348,21.085599 3.0276258,12.992293 3.0271166,4.8954896 3.0098511,5.5469306 3.2370084,5.0921471 3.3921559,4.781532 3.7614337,4.4063559 4.070133,4.2457154 4.4317931,4.0575152 4.5765908,4.0308588 5.3324709,4.0133267 L 6.007762,3.9976638 V 3.0078875 2.0181113 H 7.0012937 7.9948254 V 3.0116429 4.0051746 H 12 16.005175 V 3.0116429 2.0181113 h 0.993531 0.993532 v 0.9897762 0.9897763 l 0.675291,0.015663 c 0.756134,0.017538 0.901,0.04423 1.262338,0.2325859 0.311129,0.1621838 0.680242,0.5367072 0.833716,0.8459373 0.226498,0.4563648 0.2093,-0.1943668 0.208791,7.900443 -5.09e-4,8.093306 0.01555,7.482952 -0.208283,7.915243 -0.0799,0.154306 -0.193907,0.300157 -0.379632,0.485657 -0.302009,0.301644 -0.525898,0.434399 -0.88938,0.527363 -0.235561,0.06025 -0.368632,0.0613 -7.507807,0.05962 -7.0538685,-0.0017 -7.2746724,-0.0035 -7.4945927,-0.06107 z M 19.016818,15.011643 V 9.9974127 H 12 4.9831824 v 5.0142303 5.01423 H 12 19.016818 Z m 0,-8.0103493 V 5.992238 H 12 4.9831824 V 7.0012937 8.0103493 H 12 19.016818 Z"
     id="path2"
     transform="matrix(40,0,0,40,0,-960)" />
  <path
     style="fill:#9be37d;fill-rule:evenodd;stroke-width:0.117346"
     d="m 13.880159,17.91332 c -1.009591,-0.254774 -1.740145,-1.103537 -1.848116,-2.147156 -0.09519,-0.920098 0.290033,-1.773542 1.043096,-2.310916 0.651837,-0.465142 1.600654,-0.574242 2.357842,-0.271119 0.446691,0.178822 0.97552,0.63172 1.220015,1.044839 0.314313,0.531087 0.409702,1.264329 0.251386,1.932349 -0.05906,0.249215 -0.291073,0.69696 -0.477807,0.922093 -0.314694,0.379407 -0.790708,0.692597 -1.244169,0.81859 -0.299128,0.08311 -0.993827,0.08915 -1.302247,0.01132 z"
     id="path3"
     transform="matrix(40,0,0,40,0,-960)" />
</svg>
