<?xml version="1.0" encoding="UTF-8" standalone="no"?>
<svg
   height="24px"
   viewBox="0 -960 960 960"
   width="24px"
   fill="#e3e3e3"
   version="1.1"
   id="svg1"
   sodipodi:docname="edit-purple.svg"
   inkscape:export-filename="edit-purple.svg"
   inkscape:export-xdpi="96"
   inkscape:export-ydpi="96"
   inkscape:version="1.4 (86a8ad7, 2024-10-11)"
   xmlns:inkscape="http://www.inkscape.org/namespaces/inkscape"
   xmlns:sodipodi="http://sodipodi.sourceforge.net/DTD/sodipodi-0.dtd"
   xmlns="http://www.w3.org/2000/svg"
   xmlns:svg="http://www.w3.org/2000/svg">
  <defs
     id="defs1" />
  <sodipodi:namedview
     id="namedview1"
     pagecolor="#ffffff"
     bordercolor="#000000"
     borderopacity="0.25"
     inkscape:showpageshadow="2"
     inkscape:pageopacity="0.0"
     inkscape:pagecheckerboard="0"
     inkscape:deskcolor="#d1d1d1"
     inkscape:zoom="32.208333"
     inkscape:cx="12.015524"
     inkscape:cy="12"
     inkscape:window-width="1920"
     inkscape:window-height="991"
     inkscape:window-x="-9"
     inkscape:window-y="-9"
     inkscape:window-maximized="1"
     inkscape:current-layer="svg1" />
  <path
     d="M200-200h57l391-391-57-57-391 391v57Zm-80 80v-170l528-527q12-11 26.5-17t30.5-6q16 0 31 6t26 18l55 56q12 11 17.5 26t5.5 30q0 16-5.5 30.5T817-647L290-120H120Zm640-584-56-56 56 56Zm-141 85-28-29 57 57-29-28Z"
     id="path1" />
  <path
     style="fill:#4c2c72;fill-rule:evenodd;stroke-width:0.117346"
     d="M 3.0271669,18.866232 V 16.744106 L 9.6495241,10.131735 C 13.971794,5.8159824 16.339602,3.4733753 16.46686,3.3869559 c 0.263158,-0.1787072 0.477477,-0.2692626 0.784506,-0.3314748 0.487072,-0.098693 1.05858,0.010109 1.462945,0.278511 0.222237,0.1475125 1.866506,1.8312947 2.000388,2.0484595 0.243654,0.3952214 0.326275,1.0475244 0.196801,1.5537654 -0.134485,0.5258285 0.388598,-0.025006 -6.968338,7.338039 L 7.2346314,20.988357 H 5.1308991 3.0271669 Z M 11.340375,14.118875 16.222721,9.2364553 15.492885,8.5071151 14.763049,7.777775 9.8731157,12.667635 4.9831824,17.557494 v 0.7219 0.7219 h 0.7374238 0.7374237 z"
     id="path2"
     transform="matrix(40,0,0,40,0,-960)" />
</svg>
