<?xml version="1.0" encoding="UTF-8" standalone="no"?>
<svg
   height="40px"
   viewBox="0 -960 960 960"
   width="40px"
   fill="#e3e3e3"
   version="1.1"
   id="svg1"
   sodipodi:docname="heart-purple.svg"
   inkscape:version="1.4 (86a8ad7, 2024-10-11)"
   inkscape:export-filename="heart-purple.svg"
   inkscape:export-xdpi="96"
   inkscape:export-ydpi="96"
   xmlns:inkscape="http://www.inkscape.org/namespaces/inkscape"
   xmlns:sodipodi="http://sodipodi.sourceforge.net/DTD/sodipodi-0.dtd"
   xmlns="http://www.w3.org/2000/svg"
   xmlns:svg="http://www.w3.org/2000/svg">
  <defs
     id="defs1" />
  <sodipodi:namedview
     id="namedview1"
     pagecolor="#ffffff"
     bordercolor="#000000"
     borderopacity="0.25"
     inkscape:showpageshadow="2"
     inkscape:pageopacity="0.0"
     inkscape:pagecheckerboard="0"
     inkscape:deskcolor="#d1d1d1"
     inkscape:zoom="19.325"
     inkscape:cx="14.644243"
     inkscape:cy="20.258732"
     inkscape:window-width="1920"
     inkscape:window-height="991"
     inkscape:window-x="-9"
     inkscape:window-y="-9"
     inkscape:window-maximized="1"
     inkscape:current-layer="svg1" />
  <path
     d="M480-226.67ZM160-160v-100q0-36.67 18.5-64.17T226.67-366q65.33-30.33 127.66-45.5 62.34-15.17 125.67-15.17 6 0 11 .34 5 .33 11 .33-8.33 15.33-12.5 31.83T485.33-360h-8q-56 .33-109.83 12.5T254.67-306q-12.34 6.33-20.17 19-7.83 12.67-7.83 27v33.33H555L621.67-160H160Zm210.33-364.33Q326.67-568 326.67-634t43.66-109.67Q414-787.33 480-787.33t109.67 43.66Q633.33-700 633.33-634t-43.66 109.67Q546-480.67 480-480.67t-109.67-43.66Zm171.5-47.84Q566.67-597 566.67-634t-24.84-61.83Q517-720.67 480-720.67t-61.83 24.84Q393.33-671 393.33-634t24.84 61.83Q443-547.33 480-547.33t61.83-24.84ZM480-634Zm236 474L576-300q-13-13-18.5-28t-5.5-30q0-32 23-57t59-25q28 0 44 13t38 35q20-20 36.5-34t45.5-14q37 0 59.5 25.5T880-357q0 15-6 30t-18 27L716-160Z"
     id="path1" />
  <path
     style="fill:#4c2c72;fill-rule:evenodd;stroke-width:0.195577;fill-opacity:1"
     d="m 18.737077,19.842149 c -1.575913,-0.295878 -2.853858,-1.072429 -3.818127,-2.320107 -1.71589,-2.220209 -1.71589,-5.656993 0,-7.8772017 1.012901,-1.3106032 2.386964,-2.1091127 4.047018,-2.3518448 0.61069,-0.089295 2.072703,-0.034278 2.647861,0.099642 2.500834,0.5822927 4.37089,2.6910655 4.697692,5.2973665 0.169885,1.354861 -0.04639,2.698788 -0.618448,3.842984 -0.81745,1.635019 -2.320325,2.829449 -4.079244,3.242033 -0.606564,0.14228 -2.269763,0.18109 -2.876752,0.06713 z m 2.223771,-2.740848 c 1.158076,-0.293349 2.147388,-1.232284 2.5071,-2.379438 0.174553,-0.556663 0.200559,-1.47458 0.05795,-2.045586 C 23.351641,11.978513 23.099277,11.532052 22.5885,11.017905 22.234382,10.661451 22.060805,10.531494 21.707633,10.358402 21.086383,10.053923 20.710906,9.9681043 20,9.9681043 c -0.710906,0 -1.086383,0.085819 -1.707633,0.3902977 -0.621685,0.304692 -1.235506,0.920841 -1.537448,1.54328 -0.266511,0.549401 -0.37717,1.042814 -0.37717,1.681759 0,0.638945 0.110659,1.132359 0.37717,1.68176 0.383779,0.79114 1.208958,1.496154 2.082635,1.779356 0.601134,0.194857 1.484822,0.218473 2.123294,0.05674 z"
     id="path2"
     transform="matrix(24,0,0,24,0,-960)" />
  <path
     style="fill:#4c2c72;fill-opacity:1;fill-rule:evenodd;stroke-width:0.195577"
     d="m 6.7018441,30.957309 c 6.096e-4,-2.122772 0.010842,-2.416645 0.099028,-2.843971 0.2292184,-1.110742 0.885573,-2.127427 1.8351711,-2.842658 0.3913561,-0.294766 1.3911118,-0.781545 2.5153158,-1.224702 3.11543,-1.228091 5.909238,-1.794079 8.859414,-1.794797 l 0.864588,-2.11e-4 -0.144818,0.323416 c -0.303367,0.677494 -0.523557,1.585663 -0.523557,2.159394 v 0.244156 l -1.021992,0.03034 c -2.519609,0.0748 -4.877563,0.596177 -7.221542,1.596784 -1.616868,0.690215 -1.9849699,0.949258 -2.3225536,1.634436 l -0.1712989,0.347678 -0.016893,0.997486 -0.016893,0.997487 h 6.8477895 6.84779 l 1.370548,1.371281 1.370549,1.371281 H 16.286826 6.7011643 Z"
     id="path3"
     transform="matrix(24,0,0,24,0,-960)" />
  <path
     style="fill:#4c2c72;fill-opacity:1;fill-rule:evenodd;stroke-width:0.195577"
     d="m 26.747766,30.206986 c -1.843322,-1.849233 -3.123234,-3.173508 -3.22515,-3.336935 -0.4972,-0.797286 -0.622904,-1.958331 -0.312885,-2.889936 0.222345,-0.668147 0.857684,-1.455877 1.475887,-1.829889 0.611368,-0.369877 1.41893,-0.529078 2.187713,-0.431283 0.869614,0.110622 1.235256,0.327655 2.322418,1.378512 l 0.634826,0.613626 0.705982,-0.678555 c 0.388291,-0.373206 0.844977,-0.771373 1.014859,-0.884815 0.402234,-0.268602 0.864595,-0.40732 1.481602,-0.444512 1.416473,-0.08538 2.553795,0.568114 3.228116,1.85485 0.52812,1.007757 0.488356,2.276482 -0.102565,3.272481 -0.136222,0.229602 -0.980614,1.109139 -3.241534,3.376456 -1.68153,1.686287 -3.069875,3.065976 -3.085211,3.065976 -0.01534,0 -1.403162,-1.379689 -3.084058,-3.065976 z"
     id="path4"
     transform="matrix(24,0,0,24,0,-960)" />
</svg>
