<?xml version="1.0" encoding="UTF-8" standalone="no"?>
<svg
   height="40px"
   viewBox="0 -960 960 960"
   width="40px"
   fill="#e3e3e3"
   version="1.1"
   id="svg1"
   sodipodi:docname="location-purple.svg"
   inkscape:version="1.4 (86a8ad7, 2024-10-11)"
   inkscape:export-filename="location-purple.svg"
   inkscape:export-xdpi="96"
   inkscape:export-ydpi="96"
   xmlns:inkscape="http://www.inkscape.org/namespaces/inkscape"
   xmlns:sodipodi="http://sodipodi.sourceforge.net/DTD/sodipodi-0.dtd"
   xmlns="http://www.w3.org/2000/svg"
   xmlns:svg="http://www.w3.org/2000/svg">
  <defs
     id="defs1" />
  <sodipodi:namedview
     id="namedview1"
     pagecolor="#ffffff"
     bordercolor="#000000"
     borderopacity="0.25"
     inkscape:showpageshadow="2"
     inkscape:pageopacity="0.0"
     inkscape:pagecheckerboard="0"
     inkscape:deskcolor="#d1d1d1"
     inkscape:zoom="16"
     inkscape:cx="18.75"
     inkscape:cy="25.46875"
     inkscape:window-width="1920"
     inkscape:window-height="991"
     inkscape:window-x="-9"
     inkscape:window-y="-9"
     inkscape:window-maximized="1"
     inkscape:current-layer="svg1" />
  <path
     d="M531.83-508.17q21.5-21.5 21.5-51.83t-21.5-51.83q-21.5-21.5-51.83-21.5t-51.83 21.5q-21.5 21.5-21.5 51.83t21.5 51.83q21.5 21.5 51.83 21.5t51.83-21.5ZM480-168q129.33-118 191.33-214.17 62-96.16 62-169.83 0-115-73.5-188.17-73.5-73.16-179.83-73.16-106.33 0-179.83 73.16Q226.67-667 226.67-552q0 73.67 63 169.83Q352.67-286 480-168Zm0 88Q319-217 239.5-334.5T160-552q0-150 96.5-239T480-880q127 0 223.5 89T800-552q0 100-79.5 217.5T480-80Zm0-480Z"
     id="path1" />
  <path
     style="fill:#800080;fill-opacity:1;fill-rule:evenodd;stroke-width:0.23622"
     d="M 19.087451,35.835227 C 12.558531,30.136587 8.5188981,24.886887 7.2224594,20.416092 6.8036076,18.971674 6.7558936,18.611909 6.7528201,16.875 6.749845,15.193644 6.794636,14.712954 7.0722449,13.446982 7.6518579,10.803793 9.0149464,8.5266607 11.091471,6.7325901 13.144511,4.9588097 15.464467,3.8798569 18.0625,3.4905408 c 0.745946,-0.1117802 3.129054,-0.1117802 3.875,0 1.906259,0.2856536 3.765901,0.9813621 5.299538,1.9826048 3.357913,2.1922296 5.270608,5.1136084 5.889635,8.9956044 0.157344,0.986731 0.19282,3.155916 0.06593,4.03125 -0.510465,3.521312 -2.530385,7.213374 -6.261576,11.445065 -1.478251,1.676543 -5.27967,5.352422 -6.718574,6.496698 l -0.225049,0.178968 z m 2.229999,-4.038573 c 2.936066,-2.814299 4.935119,-5.097507 6.443279,-7.359154 1.373206,-2.059268 2.277115,-4.039755 2.652869,-5.8125 0.11303,-0.533256 0.139352,-0.861241 0.140443,-1.75 0.0031,-2.483852 -0.639033,-4.614174 -1.942612,-6.445239 C 28.079712,9.6828887 26.918268,8.5274727 26.154935,7.9860184 25.444744,7.4822587 24.273077,6.8837269 23.5,6.6297759 20.850242,5.7593477 17.72549,5.9470774 15.3125,7.1216669 12.981143,8.256519 11.127691,10.261818 10.168127,12.6875 9.9319695,13.284484 9.6306561,14.484771 9.5248517,15.25 c -0.1332158,0.963482 -0.1036269,2.592182 0.061151,3.366034 0.6029803,2.831788 2.3712713,5.826931 5.6877583,9.633966 0.907381,1.041593 4.586966,4.750144 4.712681,4.749779 0.04183,-1.21e-4 0.640785,-0.541527 1.331008,-1.203125 z"
     id="path8"
     transform="matrix(24,0,0,24,0,-960)" />
  <path
     style="fill:#4c2c72;fill-opacity:1;fill-rule:evenodd;stroke-width:0.23622"
     d="m 19.235284,19.59115 c -0.528507,-0.142333 -0.955941,-0.393909 -1.363221,-0.802355 -1.583206,-1.587739 -0.976434,-4.215797 1.152553,-4.991952 0.496167,-0.180886 1.458533,-0.17938 1.959679,0.0031 2.122292,0.772634 2.725221,3.402779 1.143642,4.988886 -0.2098,0.2104 -0.527846,0.456728 -0.70677,0.547396 -0.676908,0.343015 -1.5017,0.439218 -2.185883,0.254959 z"
     id="path9"
     transform="matrix(24,0,0,24,0,-960)" />
  <path
     style="fill:#4c2c72;fill-opacity:1;fill-rule:evenodd;stroke-width:0.23622"
     d="M 19.145448,35.835298 C 13.089301,30.494932 9.3549269,25.877339 7.6977607,21.680112 7.4067227,20.942979 7.0382558,19.712956 6.904265,19.03125 6.79471,18.473866 6.7527951,15.972131 6.8382463,15.090847 7.1544289,11.829965 8.6748049,8.8722649 11.11255,6.7757283 12.954742,5.1913857 15.064097,4.1372512 17.375,3.6461172 18.151692,3.4810473 18.266001,3.473334 19.96875,3.4710936 c 1.617334,-0.00213 1.846602,0.010895 2.491416,0.141516 2.155304,0.4366038 3.908878,1.2233408 5.662289,2.5403733 2.670032,2.0055303 4.280789,4.6319361 4.923083,8.0272881 0.121126,0.640303 0.137606,0.939879 0.139648,2.538479 0.0025,1.962328 -0.02766,2.212652 -0.436659,3.624034 -0.850235,2.933985 -2.757131,6.056711 -5.839624,9.562947 -1.465084,1.666485 -5.549747,5.606348 -6.825955,6.583978 -0.09108,0.06977 -0.2119,-0.01457 -0.9375,-0.654411 z m 1.48599,-3.346079 c 2.265131,-2.080675 4.700386,-4.703636 6.152268,-6.626477 2.501238,-3.312583 3.810786,-6.369138 3.80983,-8.892353 -9.1e-4,-2.403875 -0.595729,-4.496789 -1.79402,-6.312386 C 28.264336,9.8471231 26.802306,8.3704085 26.03125,7.8619325 24.611264,6.9255175 23.145137,6.375478 21.477272,6.1534396 17.851921,5.6708064 14.24581,6.9946147 11.990598,9.6360112 10.062795,11.893934 9.160971,14.83667 9.4612889,17.889383 c 0.2688965,2.733318 2.0575991,6.013613 5.4418951,9.979868 0.921766,1.08027 4.927675,5.133451 5.072004,5.131856 0.0551,-6.09e-4 0.350416,-0.230958 0.65625,-0.511888 z"
     id="path10"
     transform="matrix(24,0,0,24,0,-960)" />
</svg>
