<?xml version="1.0" encoding="UTF-8" standalone="no"?>
<svg
   height="40px"
   viewBox="0 -960 960 960"
   width="40px"
   fill="#e3e3e3"
   version="1.1"
   id="svg1"
   sodipodi:docname="location-lime.svg"
   inkscape:export-filename="location-lime.svg"
   inkscape:export-xdpi="96"
   inkscape:export-ydpi="96"
   inkscape:version="1.4 (86a8ad7, 2024-10-11)"
   xmlns:inkscape="http://www.inkscape.org/namespaces/inkscape"
   xmlns:sodipodi="http://sodipodi.sourceforge.net/DTD/sodipodi-0.dtd"
   xmlns="http://www.w3.org/2000/svg"
   xmlns:svg="http://www.w3.org/2000/svg">
  <defs
     id="defs1" />
  <sodipodi:namedview
     id="namedview1"
     pagecolor="#ffffff"
     bordercolor="#000000"
     borderopacity="0.25"
     inkscape:showpageshadow="2"
     inkscape:pageopacity="0.0"
     inkscape:pagecheckerboard="0"
     inkscape:deskcolor="#d1d1d1"
     inkscape:zoom="19.325"
     inkscape:cx="20.025873"
     inkscape:cy="20"
     inkscape:window-width="1920"
     inkscape:window-height="991"
     inkscape:window-x="-9"
     inkscape:window-y="-9"
     inkscape:window-maximized="1"
     inkscape:current-layer="svg1" />
  <path
     d="M531.83-508.17q21.5-21.5 21.5-51.83t-21.5-51.83q-21.5-21.5-51.83-21.5t-51.83 21.5q-21.5 21.5-21.5 51.83t21.5 51.83q21.5 21.5 51.83 21.5t51.83-21.5ZM480-168q129.33-118 191.33-214.17 62-96.16 62-169.83 0-115-73.5-188.17-73.5-73.16-179.83-73.16-106.33 0-179.83 73.16Q226.67-667 226.67-552q0 73.67 63 169.83Q352.67-286 480-168Zm0 88Q319-217 239.5-334.5T160-552q0-150 96.5-239T480-880q127 0 223.5 89T800-552q0 100-79.5 217.5T480-80Zm0-480Z"
     id="path1" />
  <path
     style="fill:#9be37d;fill-rule:evenodd;stroke-width:0.195577"
     d="M 19.238872,35.973464 C 16.398332,33.508233 13.775479,30.868995 11.952584,28.641656 8.7847372,24.770963 7.0836402,21.313008 6.7476944,18.061263 6.6721482,17.330022 6.7156687,15.58476 6.8301658,14.753993 7.1848478,12.180495 8.1239987,9.9819395 9.6424027,8.1705356 11.429818,6.0382103 14.271561,4.2911505 16.904671,3.7058038 18.088319,3.442676 18.590067,3.3917719 20,3.3917719 c 1.409933,0 1.911681,0.050904 3.095329,0.3140319 1.348997,0.2998853 3.006495,1.0123987 4.226793,1.816984 3.392504,2.2367966 5.298389,5.2454292 5.847712,9.2312052 0.114497,0.830767 0.158018,2.576029 0.08247,3.30727 -0.335781,3.250146 -2.038601,6.711603 -5.20489,10.580393 -1.764505,2.155994 -4.38704,4.806243 -7.064234,7.138885 -0.355756,0.309972 -0.719722,0.631231 -0.808813,0.71391 l -0.161982,0.150326 z m 1.218463,-3.360269 c 1.37406,-1.242984 3.667346,-3.595471 4.830035,-4.954722 2.989603,-3.495019 4.699666,-6.585435 5.17102,-9.345033 0.09614,-0.562865 0.106425,-0.779212 0.08341,-1.754578 -0.0372,-1.577031 -0.235731,-2.627765 -0.743057,-3.93273 -0.68894,-1.77212 -1.87474,-3.3026893 -3.50522,-4.5243606 C 25.038959,7.1617607 23.599425,6.5466595 21.966365,6.2528109 21.103425,6.0975356 19.47907,6.0637731 18.548034,6.1817603 16.604799,6.4280201 14.90075,7.1386999 13.417231,8.3215805 11.327122,9.9881242 10.071878,12.123845 9.5947147,14.825356 c -0.1381618,0.782219 -0.1950495,2.542545 -0.1030769,3.189603 0.4899437,3.446921 3.0285882,7.496399 7.6838132,12.25671 0.903574,0.92397 2.769519,2.742561 2.813976,2.742561 0.01352,0 0.224079,-0.180465 0.467908,-0.401035 z"
     id="path2"
     transform="matrix(24,0,0,24,0,-960)" />
  <path
     style="fill:#9be37d;fill-rule:evenodd;stroke-width:0.195577"
     d="m 19.55509,19.666484 c -0.619501,-0.09713 -1.14172,-0.356219 -1.611623,-0.799569 -0.653216,-0.616304 -0.950157,-1.295622 -0.954398,-2.183389 -0.0043,-0.897382 0.245683,-1.500161 0.888812,-2.143291 0.423526,-0.423526 0.836656,-0.673472 1.322199,-0.79994 0.392627,-0.102267 1.207213,-0.102267 1.59984,0 0.939223,0.244636 1.800215,1.080782 2.10306,2.04237 0.147465,0.468228 0.147465,1.291151 0,1.759379 -0.302545,0.960635 -1.126106,1.768141 -2.077742,2.037239 -0.358138,0.101272 -0.930004,0.140533 -1.270148,0.0872 z"
     id="path3"
     transform="matrix(24,0,0,24,0,-960)" />
</svg>
