<?xml version="1.0" encoding="UTF-8" standalone="no"?>
<svg
   height="40px"
   viewBox="0 -960 960 960"
   width="40px"
   fill="#e3e3e3"
   version="1.1"
   id="svg1"
   sodipodi:docname="logout-purple.svg"
   inkscape:export-filename="logout-purple.svg"
   inkscape:export-xdpi="96"
   inkscape:export-ydpi="96"
   inkscape:version="1.4 (86a8ad7, 2024-10-11)"
   xmlns:inkscape="http://www.inkscape.org/namespaces/inkscape"
   xmlns:sodipodi="http://sodipodi.sourceforge.net/DTD/sodipodi-0.dtd"
   xmlns="http://www.w3.org/2000/svg"
   xmlns:svg="http://www.w3.org/2000/svg">
  <defs
     id="defs1" />
  <sodipodi:namedview
     id="namedview1"
     pagecolor="#ffffff"
     bordercolor="#000000"
     borderopacity="0.25"
     inkscape:showpageshadow="2"
     inkscape:pageopacity="0.0"
     inkscape:pagecheckerboard="0"
     inkscape:deskcolor="#d1d1d1"
     inkscape:zoom="19.325"
     inkscape:cx="20.025873"
     inkscape:cy="20"
     inkscape:window-width="1920"
     inkscape:window-height="991"
     inkscape:window-x="-9"
     inkscape:window-y="-9"
     inkscape:window-maximized="1"
     inkscape:current-layer="svg1" />
  <path
     d="M186.67-120q-27 0-46.84-19.83Q120-159.67 120-186.67v-586.66q0-27 19.83-46.84Q159.67-840 186.67-840h292.66v66.67H186.67v586.66h292.66V-120H186.67Zm470.66-176.67-47-48 102-102H360v-66.66h351l-102-102 47-48 184 184-182.67 182.66Z"
     id="path1" />
  <path
     style="fill:#9be37d;fill-rule:evenodd;stroke-width:0.195577"
     d="M 7.147947,34.898501 C 6.2590086,34.683336 5.4168302,33.895796 5.1492509,33.029475 5.0463157,32.69621 5.0452781,32.566188 5.0452781,20 5.0452781,7.433812 5.0463157,7.3037906 5.1492509,6.9705253 5.3475097,6.3286378 5.8978342,5.6794875 6.5288836,5.3431416 7.1574712,5.0081079 6.8699153,5.0210125 13.725744,5.0201698 l 6.22251,-7.649e-4 V 6.3906856 7.7619664 H 13.842173 7.7360931 V 20 32.238034 h 6.1060799 6.106081 v 1.37128 1.371281 l -6.248383,-0.0043 c -5.2093733,-0.0036 -6.2988574,-0.01653 -6.551924,-0.07778 z"
     id="path2"
     transform="matrix(24,0,0,24,0,-960)" />
  <path
     style="fill:#4c2c72;fill-rule:evenodd;stroke-width:0.195577;fill-opacity:1"
     d="M 26.417589,26.616111 25.474588,25.651368 27.575586,23.5499 c 1.155549,-1.155807 2.100999,-2.118826 2.100999,-2.140043 0,-0.02122 -3.294955,-0.03858 -7.322122,-0.03858 H 15.032342 V 20 18.628719 h 7.296248 c 4.012937,0 7.296248,-0.01736 7.296248,-0.03858 0,-0.02122 -0.947075,-0.985863 -2.104611,-2.143657 l -2.104613,-2.105082 0.964473,-0.974065 0.964472,-0.974066 3.817929,3.816256 3.81793,3.816255 -3.777269,3.777535 c -2.077498,2.077644 -3.791959,3.777535 -3.809913,3.777535 -0.01796,0 -0.456996,-0.434135 -0.975647,-0.964743 z"
     id="path3"
     transform="matrix(24,0,0,24,0,-960)" />
  <path
     style="fill:#4c2c72;fill-opacity:1;fill-rule:evenodd;stroke-width:0.195577"
     d="M 12.28978,34.929928 7.1410091,34.902975 6.8652232,34.785678 C 6.1836346,34.495785 5.6383383,33.98482 5.3170818,33.335006 l -0.194184,-0.392781 -0.032861,-3.185213 c -0.042334,-4.103519 -0.042334,-15.410505 0,-19.514024 L 5.1228978,7.0577746 5.3249825,6.6490077 C 5.7114917,5.8671959 6.5228285,5.2285628 7.2623536,5.1240316 7.4401539,5.0988997 10.367218,5.0614614 13.76694,5.0408353 l 6.181314,-0.037502 V 6.3826498 7.7619664 H 13.842173 7.7360931 V 20 32.238034 h 6.1060799 6.106081 v 1.37128 1.371281 l -1.254852,-0.01186 c -0.690168,-0.0065 -3.571798,-0.02399 -6.403622,-0.03881 z"
     id="path4"
     transform="matrix(24,0,0,24,0,-960)" />
</svg>
