<?xml version="1.0" encoding="UTF-8" standalone="no"?>
<svg
   height="40px"
   viewBox="0 -960 960 960"
   width="40px"
   fill="#e3e3e3"
   version="1.1"
   id="svg1"
   sodipodi:docname="notification-lime.svg"
   inkscape:export-filename="notification-lime.svg"
   inkscape:export-xdpi="96"
   inkscape:export-ydpi="96"
   inkscape:version="1.4 (86a8ad7, 2024-10-11)"
   xmlns:inkscape="http://www.inkscape.org/namespaces/inkscape"
   xmlns:sodipodi="http://sodipodi.sourceforge.net/DTD/sodipodi-0.dtd"
   xmlns="http://www.w3.org/2000/svg"
   xmlns:svg="http://www.w3.org/2000/svg">
  <defs
     id="defs1" />
  <sodipodi:namedview
     id="namedview1"
     pagecolor="#ffffff"
     bordercolor="#000000"
     borderopacity="0.25"
     inkscape:showpageshadow="2"
     inkscape:pageopacity="0.0"
     inkscape:pagecheckerboard="0"
     inkscape:deskcolor="#d1d1d1"
     inkscape:zoom="19.325"
     inkscape:cx="20.025873"
     inkscape:cy="20"
     inkscape:window-width="1920"
     inkscape:window-height="991"
     inkscape:window-x="-9"
     inkscape:window-y="-9"
     inkscape:window-maximized="1"
     inkscape:current-layer="svg1" />
  <path
     d="M160-200v-66.67h80v-296q0-83.66 49.67-149.5Q339.33-778 420-796v-24q0-25 17.5-42.5T480-880q25 0 42.5 17.5T540-820v24q80.67 18 130.33 83.83Q720-646.33 720-562.67v296h80V-200H160Zm320-301.33ZM480-80q-33 0-56.5-23.5T400-160h160q0 33-23.5 56.5T480-80ZM306.67-266.67h346.66v-296q0-72-50.66-122.66Q552-736 480-736t-122.67 50.67q-50.66 50.66-50.66 122.66v296Z"
     id="path1" />
  <path
     style="fill:#9be37d;fill-rule:evenodd;stroke-width:0.195577"
     d="m 6.7011643,30.271669 v -1.345408 h 1.6535611 1.6535606 l 0.0198,-6.765847 c 0.01914,-6.540022 0.02331,-6.784846 0.12519,-7.335058 0.277352,-1.497928 0.739487,-2.682441 1.504157,-3.855356 1.305087,-2.0018536 3.05812,-3.3209649 5.256509,-3.9553868 0.252213,-0.072785 0.488063,-0.1323364 0.524109,-0.1323364 0.04897,0 0.07161,-0.1994658 0.08955,-0.7891332 0.03266,-1.0734553 0.178657,-1.4606514 0.77192,-2.0472247 0.917041,-0.9066989 2.46916,-0.9149427 3.381613,-0.017961 0.612297,0.6019143 0.758314,0.9822243 0.791147,2.0605837 l 0.02389,0.7845316 0.187881,0.035039 c 0.31477,0.058703 1.141895,0.337206 1.629302,0.548606 1.588001,0.6887535 2.977901,1.9006781 4.029221,3.5132818 0.76467,1.172915 1.226805,2.357428 1.504158,3.855356 0.101875,0.550212 0.106054,0.795036 0.125189,7.335058 l 0.0198,6.765847 h 1.653562 1.653561 v 1.345408 1.345407 H 20 6.7011643 Z M 27.230936,22.21216 c -0.01713,-6.673269 -0.01791,-6.717003 -0.12928,-7.191437 -0.306144,-1.304224 -0.790886,-2.255318 -1.65817,-3.253435 -1.01808,-1.171661 -2.385877,-1.9796042 -3.904874,-2.3065677 -0.708515,-0.1525076 -2.254808,-0.1666039 -2.949732,-0.02689 -1.292176,0.2597899 -2.349522,0.7857477 -3.380454,1.6815457 -1.163392,1.010894 -1.94952,2.341137 -2.314795,3.916966 -0.105997,0.457282 -0.108256,0.587329 -0.124703,7.179818 l -0.01675,6.714101 h 7.247994 7.247996 z"
     id="path2"
     transform="matrix(24,0,0,24,0,-960)" />
  <path
     style="fill:#9be37d;fill-rule:evenodd;stroke-width:0.195577"
     d="m 19.249677,36.562552 c -0.933938,-0.217991 -1.773285,-0.889423 -2.203988,-1.763069 -0.193812,-0.393132 -0.354605,-0.970679 -0.356563,-1.280725 l -8.98e-4,-0.142303 H 20 23.311772 l -8.98e-4,0.142303 c -0.002,0.310046 -0.162751,0.887593 -0.356563,1.280725 -0.371464,0.753484 -1.087432,1.390932 -1.868804,1.663854 -0.47873,0.167213 -1.344133,0.213983 -1.83583,0.09921 z"
     id="path3"
     transform="matrix(24,0,0,24,0,-960)" />
</svg>
