<?xml version="1.0" encoding="UTF-8" standalone="no"?>
<svg
   height="24px"
   viewBox="0 -960 960 960"
   width="24px"
   fill="#e3e3e3"
   version="1.1"
   id="svg1"
   sodipodi:docname="price-purple.svg"
   inkscape:export-filename="price-purple.svg"
   inkscape:export-xdpi="96"
   inkscape:export-ydpi="96"
   inkscape:version="1.4 (86a8ad7, 2024-10-11)"
   xmlns:inkscape="http://www.inkscape.org/namespaces/inkscape"
   xmlns:sodipodi="http://sodipodi.sourceforge.net/DTD/sodipodi-0.dtd"
   xmlns="http://www.w3.org/2000/svg"
   xmlns:svg="http://www.w3.org/2000/svg">
  <defs
     id="defs1" />
  <sodipodi:namedview
     id="namedview1"
     pagecolor="#ffffff"
     bordercolor="#000000"
     borderopacity="0.25"
     inkscape:showpageshadow="2"
     inkscape:pageopacity="0.0"
     inkscape:pagecheckerboard="0"
     inkscape:deskcolor="#d1d1d1"
     inkscape:zoom="32.208333"
     inkscape:cx="12.015524"
     inkscape:cy="12"
     inkscape:window-width="1920"
     inkscape:window-height="991"
     inkscape:window-x="-9"
     inkscape:window-y="-9"
     inkscape:window-maximized="1"
     inkscape:current-layer="svg1" />
  <path
     d="M856-390 570-104q-12 12-27 18t-30 6q-15 0-30-6t-27-18L103-457q-11-11-17-25.5T80-513v-287q0-33 23.5-56.5T160-880h287q16 0 31 6.5t26 17.5l352 353q12 12 17.5 27t5.5 30q0 15-5.5 29.5T856-390ZM513-160l286-286-353-354H160v286l353 354ZM260-640q25 0 42.5-17.5T320-700q0-25-17.5-42.5T260-760q-25 0-42.5 17.5T200-700q0 25 17.5 42.5T260-640Zm220 160Z"
     id="path1" />
  <path
     style="fill:#4c2c72;fill-rule:evenodd;stroke-width:0.117346"
     d="M 6.0471978,7.9145278 C 5.7806301,7.8300663 5.493196,7.6258222 5.32004,7.3978261 4.7946948,6.7060995 4.9706908,5.7191427 5.7038908,5.2452527 5.9603511,5.0794944 6.2118311,5.0195051 6.5870629,5.0345764 6.8615352,5.0456006 6.9174967,5.058491 7.125846,5.1586817 7.4064997,5.2936419 7.5778209,5.4376321 7.729332,5.6658933 8.0291249,6.1175504 8.0650479,6.6964945 7.822927,7.174297 7.7163591,7.3845985 7.4397237,7.6753984 7.2345783,7.7927707 6.9020787,7.9830077 6.4195034,8.0324923 6.0471978,7.9145278 Z"
     id="path2"
     transform="matrix(40,0,0,40,0,-960)" />
  <path
     style="fill:#4c2c72;fill-rule:evenodd;stroke-width:0.117346"
     d="M 12.353342,21.922432 C 12.231769,21.889503 12.029182,21.811339 11.903148,21.748734 11.682837,21.639299 11.494237,21.455063 7.0139786,16.972694 2.6791,12.635772 2.346219,12.295315 2.2430141,12.093144 2.0022951,11.621592 2.0181113,11.940371 2.0181113,7.5601552 V 3.6481242 L 2.1024064,3.3997413 C 2.311658,2.7831639 2.7423242,2.3510898 3.3982478,2.0996639 c 0.1719124,-0.065897 0.1800454,-0.066046 4.0687638,-0.074828 4.3683144,-0.00987 4.1201064,-0.02155 4.6039914,0.2167395 0.254764,0.1254591 0.259121,0.1296903 4.721309,4.5849497 2.456469,2.4526559 4.556383,4.5636079 4.666474,4.6910049 0.349814,0.404805 0.491182,0.796804 0.487508,1.351811 -0.0027,0.410125 -0.09193,0.72779 -0.292785,1.042538 -0.187309,0.293516 -7.512808,7.612333 -7.775411,7.768319 -0.458533,0.272368 -1.060454,0.367994 -1.524756,0.242234 z m 4.070955,-5.498088 3.57038,-3.570481 -1.847259,-1.855133 C 17.131425,9.9784064 15.140545,7.9804657 13.723241,6.5588616 L 11.146323,3.9741268 H 7.5679871 3.9896507 v 3.5886042 3.588604 l 4.4010349,4.421645 c 2.4205694,2.431905 4.4150294,4.42169 4.4321334,4.421745 0.0171,5.5e-5 1.637769,-1.606616 3.601478,-3.570381 z"
     id="path3"
     transform="matrix(40,0,0,40,0,-960)" />
</svg>
